<?xml version="1.0" standalone="no"?>
<!DOCTYPE svg PUBLIC "-//W3C//DTD SVG 20010904//EN"
 "http://www.w3.org/TR/2001/REC-SVG-20010904/DTD/svg10.dtd">
<svg version="1.0" xmlns="http://www.w3.org/2000/svg"
 width="1845.000000pt" height="1845.000000pt" viewBox="0 0 1845.000000 1845.000000"
 preserveAspectRatio="xMidYMid meet">

<g transform="translate(0.000000,1845.000000) scale(0.100000,-0.100000)"
fill="#000000" stroke="none">
<path d="M0 9225 l0 -9225 9225 0 9225 0 0 9225 0 9225 -9225 0 -9225 0 0
-9225z m10120 8230 c26 -9 79 -15 137 -15 52 0 92 -4 89 -8 -5 -9 -1 -10 124
-18 52 -4 98 -11 102 -17 3 -6 50 -14 103 -17 53 -3 100 -11 103 -17 4 -5 36
-11 72 -12 43 -1 69 -7 76 -17 8 -10 33 -14 91 -14 59 0 84 -4 93 -15 8 -9 30
-15 60 -15 30 0 52 -6 60 -15 8 -9 29 -15 56 -15 24 0 49 -6 58 -15 8 -8 31
-15 51 -15 20 0 43 -7 51 -15 10 -9 34 -15 64 -15 33 0 50 -5 54 -15 3 -10 19
-15 46 -15 29 0 40 -4 40 -15 0 -12 13 -15 60 -15 44 0 60 -4 60 -14 0 -8 16
-16 42 -19 24 -3 44 -11 46 -16 2 -6 16 -11 32 -11 16 0 30 -7 34 -15 3 -10
19 -15 46 -15 29 0 40 -4 40 -15 0 -14 26 -20 78 -18 6 1 12 -5 12 -13 0 -8
10 -14 25 -14 14 0 28 -7 31 -15 4 -9 19 -15 35 -15 19 0 29 -5 29 -15 0 -11
12 -15 45 -15 33 0 45 -4 45 -15 0 -10 10 -15 29 -15 16 0 36 -7 45 -15 8 -8
28 -15 45 -15 21 0 31 -5 31 -15 0 -10 10 -15 30 -15 20 0 30 -5 30 -15 0 -10
10 -15 30 -15 17 0 30 -4 30 -10 0 -5 18 -14 40 -20 22 -6 40 -15 40 -20 0 -6
13 -10 29 -10 16 0 31 -6 35 -15 3 -8 15 -15 26 -15 11 0 20 -4 20 -9 0 -11
56 -32 64 -24 3 4 6 -1 6 -10 0 -10 8 -17 19 -17 10 0 21 -7 25 -15 3 -8 16
-15 30 -15 13 0 26 -7 30 -15 3 -8 17 -15 31 -15 16 0 25 -6 25 -15 0 -8 7
-15 15 -15 27 0 30 -1 38 -16 4 -8 15 -14 22 -14 8 0 15 -5 15 -11 0 -5 4 -8
9 -5 5 3 11 -1 15 -9 3 -8 12 -12 21 -9 10 4 15 0 15 -10 0 -11 9 -16 30 -16
20 0 30 -5 30 -15 0 -8 7 -15 15 -15 8 0 15 -7 15 -15 0 -9 9 -15 25 -15 14 0
28 -7 31 -15 4 -8 12 -15 19 -15 7 0 15 -7 19 -15 3 -8 17 -15 31 -15 16 0 25
-6 25 -15 0 -10 10 -15 30 -15 20 0 30 -5 30 -15 0 -14 17 -20 48 -16 6 1 12
-5 12 -14 0 -8 7 -15 15 -15 8 0 15 -7 15 -15 0 -9 9 -15 25 -15 14 0 28 -7
31 -15 4 -8 12 -15 20 -15 8 0 14 -6 14 -14 0 -7 14 -16 31 -20 17 -3 28 -10
24 -16 -3 -5 3 -10 14 -10 12 0 21 -7 21 -15 0 -8 6 -15 14 -15 8 0 16 -7 20
-15 3 -8 17 -15 31 -15 19 0 25 -5 23 -17 -2 -12 3 -17 15 -15 10 2 17 -3 17
-13 0 -8 7 -15 15 -15 9 0 18 -7 21 -15 4 -8 17 -15 30 -15 15 0 24 -6 24 -15
0 -8 7 -15 15 -15 8 0 15 -7 15 -15 0 -8 7 -15 15 -15 8 0 15 -7 15 -15 0 -8
7 -15 15 -15 8 0 15 -5 15 -11 0 -5 5 -7 10 -4 6 3 10 1 10 -4 0 -6 9 -11 20
-11 11 0 20 -7 20 -15 0 -8 7 -15 15 -15 8 0 15 -7 15 -15 0 -8 7 -15 15 -15
8 0 15 -6 15 -14 0 -8 11 -17 25 -20 14 -4 25 -10 25 -14 0 -15 41 -53 51 -47
5 4 12 -1 15 -9 3 -9 13 -16 21 -16 8 0 11 -5 8 -11 -4 -6 2 -13 14 -16 12 -3
21 -12 21 -19 0 -8 7 -14 15 -14 8 0 15 -7 15 -15 0 -8 7 -15 15 -15 8 0 15
-7 15 -15 0 -8 7 -15 15 -15 8 0 15 -7 15 -15 0 -8 7 -15 15 -15 8 0 15 -7 15
-15 0 -13 18 -20 36 -12 4 1 11 -8 15 -21 5 -13 13 -20 19 -17 5 3 10 1 10 -5
0 -17 72 -90 88 -90 7 0 10 -4 7 -10 -3 -5 3 -10 14 -10 12 0 21 -7 21 -15 0
-8 7 -15 15 -15 8 0 15 -7 15 -15 0 -8 4 -15 9 -15 5 0 11 -9 14 -20 3 -11 9
-19 14 -18 10 4 53 -38 53 -52 0 -5 6 -9 13 -7 6 1 11 -4 10 -10 -2 -7 6 -13
17 -13 11 0 20 -7 20 -15 0 -14 22 -46 48 -69 7 -6 18 -17 25 -24 62 -66 77
-84 77 -92 0 -6 7 -10 15 -10 8 0 15 -7 15 -15 0 -8 7 -15 15 -15 8 0 15 -7
15 -15 0 -8 7 -15 15 -15 8 0 15 -7 15 -15 0 -8 7 -15 15 -15 8 0 15 -7 15
-15 0 -16 8 -27 43 -66 9 -10 17 -23 17 -29 0 -5 7 -10 15 -10 8 0 15 -7 15
-15 0 -8 7 -15 15 -15 8 0 15 -7 15 -15 0 -8 7 -15 15 -15 8 0 15 -6 15 -14 0
-8 7 -16 15 -20 8 -3 15 -9 14 -13 -4 -25 3 -43 16 -43 8 0 15 -7 15 -15 0 -8
7 -15 15 -15 9 0 15 -9 15 -25 0 -14 7 -28 15 -31 8 -4 15 -12 15 -20 0 -8 7
-14 15 -14 8 0 15 -9 15 -19 0 -11 7 -26 15 -35 8 -8 15 -19 15 -25 0 -6 7
-11 15 -11 8 0 15 -9 15 -20 0 -11 5 -20 11 -20 5 0 7 -4 4 -10 -3 -5 -1 -10
4 -10 6 0 11 -7 11 -15 0 -8 7 -15 15 -15 8 0 15 -9 15 -20 0 -11 6 -20 13
-20 8 0 7 -4 -3 -10 -13 -8 -12 -10 3 -10 9 0 17 -7 17 -15 0 -8 7 -15 15 -15
10 0 15 -10 15 -30 0 -18 5 -30 13 -30 7 0 21 -20 32 -45 11 -25 26 -45 33
-45 6 0 12 -12 12 -26 0 -14 4 -22 10 -19 5 3 12 -6 16 -20 3 -14 13 -25 21
-25 9 0 13 -6 10 -14 -3 -7 3 -20 14 -29 10 -9 19 -24 19 -32 0 -8 4 -15 9
-15 5 0 12 -13 16 -30 4 -16 13 -30 21 -30 9 0 14 -11 14 -30 0 -20 5 -30 15
-30 10 0 15 -10 15 -30 0 -20 5 -30 15 -30 8 0 15 -9 15 -19 0 -11 7 -26 15
-35 8 -8 15 -22 15 -30 0 -9 7 -16 15 -16 9 0 15 -9 15 -25 0 -16 6 -25 15
-25 10 0 15 -10 15 -30 0 -20 5 -30 15 -30 10 0 15 -10 15 -31 0 -17 7 -37 15
-45 8 -9 15 -26 15 -40 0 -14 7 -27 15 -30 8 -4 15 -17 15 -30 0 -14 7 -27 15
-30 9 -4 15 -19 15 -35 0 -19 5 -29 15 -29 10 0 15 -10 15 -29 0 -16 6 -31 15
-35 9 -3 15 -18 15 -36 0 -18 4 -29 10 -25 5 3 13 -12 16 -35 4 -23 13 -44 20
-47 8 -3 14 -18 14 -34 0 -19 5 -29 15 -29 10 0 15 -10 15 -30 0 -20 5 -30 15
-30 10 0 15 -10 15 -29 0 -17 5 -33 10 -36 6 -4 8 -11 5 -16 -4 -5 -1 -9 4 -9
6 0 11 -13 11 -30 0 -20 5 -30 15 -30 10 0 15 -10 15 -34 0 -19 7 -41 15 -50
8 -8 15 -26 15 -39 0 -34 10 -58 21 -51 5 3 9 -10 9 -28 0 -18 7 -42 15 -52 8
-11 15 -39 15 -63 0 -32 4 -43 15 -43 11 0 15 -12 15 -42 0 -24 7 -52 15 -62
8 -11 15 -39 15 -62 0 -23 4 -44 10 -46 5 -2 14 -28 20 -58 6 -30 15 -56 20
-58 6 -2 10 -28 10 -58 0 -39 4 -56 15 -60 11 -5 15 -21 15 -60 0 -39 4 -56
15 -60 11 -5 15 -21 15 -61 0 -35 5 -60 15 -69 10 -10 15 -35 15 -75 0 -44 4
-61 15 -65 11 -5 15 -23 15 -74 0 -48 4 -71 15 -80 11 -9 15 -32 15 -79 0 -44
5 -74 15 -87 11 -15 14 -54 15 -181 0 -133 3 -163 14 -163 11 0 15 -23 18
-107 2 -74 7 -108 16 -111 9 -3 12 -122 12 -553 0 -302 -4 -549 -8 -549 -11 0
-13 -48 -2 -55 6 -3 10 -40 10 -81 0 -55 -3 -74 -14 -74 -9 0 -15 -24 -19 -89
-3 -50 -10 -99 -16 -110 -6 -11 -11 -70 -11 -131 0 -86 -3 -115 -15 -126 -9
-10 -15 -34 -15 -65 0 -37 -4 -49 -15 -49 -12 0 -15 -13 -15 -59 0 -43 -4 -60
-15 -65 -11 -4 -15 -22 -15 -71 0 -49 -4 -67 -15 -71 -11 -5 -15 -22 -15 -65
0 -46 -3 -59 -15 -59 -11 0 -15 -12 -16 -45 -3 -68 -3 -69 -16 -83 -11 -11
-18 -71 -16 -129 1 -7 -5 -13 -13 -13 -12 0 -18 -31 -13 -67 0 -3 -6 -10 -15
-15 -10 -6 -16 -23 -16 -49 0 -26 -5 -42 -15 -45 -10 -4 -15 -20 -15 -46 0
-24 -6 -45 -15 -52 -8 -6 -15 -28 -17 -48 -1 -23 -7 -38 -15 -38 -7 0 -13 -11
-13 -26 0 -14 -7 -32 -15 -40 -8 -9 -15 -31 -15 -49 0 -18 -7 -40 -15 -49 -8
-8 -15 -28 -15 -45 0 -21 -5 -31 -15 -31 -11 0 -15 -12 -15 -45 0 -31 -4 -44
-12 -43 -8 2 -14 -10 -16 -29 -2 -18 -8 -33 -14 -33 -5 0 -7 -7 -4 -16 3 -8 2
-12 -4 -9 -6 4 -10 -9 -10 -29 0 -25 -4 -36 -15 -36 -10 0 -15 -10 -15 -30 0
-20 -5 -30 -15 -30 -10 0 -15 -10 -15 -29 0 -16 -6 -31 -15 -35 -10 -3 -15
-20 -16 -48 0 -31 -3 -37 -8 -24 -7 18 -8 18 -14 -5 -4 -13 -7 -34 -7 -46 0
-14 -6 -23 -15 -23 -10 0 -15 -10 -15 -30 0 -20 -5 -30 -15 -30 -9 0 -15 -9
-15 -23 0 -12 -9 -41 -20 -62 -11 -22 -18 -45 -15 -52 2 -7 -2 -13 -10 -13
-10 0 -15 -10 -15 -30 0 -20 -5 -30 -15 -30 -10 0 -15 -10 -15 -31 0 -17 -4
-28 -10 -24 -6 3 -14 -5 -19 -18 -6 -14 -15 -28 -20 -32 -6 -3 -11 -15 -11
-26 0 -10 -6 -19 -12 -19 -7 0 -22 -21 -33 -47 -11 -25 -26 -52 -33 -59 -6 -7
-13 -24 -14 -38 -1 -14 -8 -26 -14 -26 -7 0 -15 -17 -19 -37 -5 -27 -9 -33
-16 -22 -6 10 -9 7 -9 -13 0 -18 -5 -28 -15 -28 -8 0 -15 -7 -15 -15 0 -8 -7
-15 -15 -15 -10 0 -15 -10 -15 -30 0 -20 -5 -30 -15 -30 -8 0 -15 -7 -15 -15
0 -8 -7 -15 -15 -15 -8 0 -15 -5 -15 -11 0 -6 -7 -17 -15 -25 -8 -9 -15 -24
-15 -35 0 -10 -6 -19 -14 -19 -7 0 -16 -13 -19 -30 -4 -18 -13 -30 -22 -30 -9
0 -13 -5 -10 -10 3 -6 -1 -13 -9 -16 -9 -3 -16 -12 -16 -20 0 -8 -7 -14 -15
-14 -8 0 -15 -7 -15 -15 0 -8 -7 -15 -15 -15 -13 0 -21 -26 -16 -54 1 -5 -5
-6 -14 -3 -10 5 -15 0 -15 -13 0 -11 -7 -20 -15 -20 -8 0 -15 -7 -15 -15 0 -9
-7 -18 -15 -21 -8 -4 -15 -17 -15 -30 0 -15 -6 -24 -15 -24 -8 0 -15 -7 -15
-15 0 -8 -7 -15 -15 -15 -8 0 -15 -7 -15 -15 0 -8 -7 -15 -15 -15 -8 0 -15 -7
-15 -15 0 -9 -7 -18 -15 -21 -8 -4 -15 -17 -15 -30 0 -15 -6 -24 -15 -24 -8 0
-15 -4 -15 -10 0 -5 -13 -23 -30 -40 -16 -17 -30 -40 -30 -50 0 -11 -7 -20
-15 -20 -8 0 -15 -7 -15 -15 0 -8 -7 -15 -15 -15 -10 0 -15 -10 -15 -31 0 -19
-4 -28 -11 -24 -6 4 -13 -2 -16 -14 -3 -12 -12 -21 -19 -21 -8 0 -14 -7 -14
-15 0 -8 -7 -15 -15 -15 -8 0 -15 -7 -15 -15 0 -8 -7 -15 -15 -15 -8 0 -15 -7
-15 -15 0 -8 -7 -15 -15 -15 -8 0 -15 -4 -15 -10 0 -13 -37 -50 -50 -50 -5 0
-10 -7 -10 -15 0 -8 -7 -15 -15 -15 -8 0 -15 -7 -15 -15 0 -8 -7 -15 -15 -15
-8 0 -15 -7 -15 -15 0 -8 -7 -15 -15 -15 -10 0 -15 -10 -15 -30 0 -20 -5 -30
-15 -30 -8 0 -15 -4 -15 -10 0 -5 -8 -18 -17 -29 -10 -10 -29 -32 -43 -50 -14
-17 -30 -31 -37 -31 -7 0 -10 -7 -6 -15 3 -9 2 -15 -3 -14 -25 4 -44 -3 -44
-16 0 -8 -7 -15 -15 -15 -8 0 -15 -7 -15 -15 0 -8 -7 -15 -15 -15 -8 0 -15 -7
-15 -15 0 -8 -7 -15 -15 -15 -8 0 -15 -7 -15 -15 0 -8 -7 -15 -15 -15 -8 0
-15 -7 -15 -15 0 -8 -7 -15 -15 -15 -8 0 -15 -7 -15 -15 0 -8 -7 -15 -15 -15
-8 0 -15 -7 -15 -15 0 -8 -7 -15 -15 -15 -8 0 -15 -7 -15 -15 0 -8 -9 -15 -21
-15 -13 0 -18 -4 -13 -12 5 -8 2 -9 -9 -5 -10 3 -17 2 -17 -3 0 -6 -7 -10 -15
-10 -8 0 -15 -7 -15 -15 0 -8 -9 -15 -20 -15 -11 0 -19 -6 -18 -12 2 -7 -7
-14 -20 -16 -13 -2 -26 -10 -29 -18 -3 -8 -11 -14 -19 -14 -8 0 -14 -7 -14
-15 0 -9 -9 -15 -25 -15 -14 0 -28 -7 -31 -15 -4 -8 -12 -15 -20 -15 -8 0 -14
-7 -14 -15 0 -8 -7 -15 -15 -15 -8 0 -15 -7 -15 -15 0 -9 -9 -15 -25 -15 -14
0 -28 -7 -31 -15 -4 -8 -12 -15 -20 -15 -8 0 -14 -7 -14 -15 0 -8 -9 -15 -20
-15 -11 0 -20 -5 -20 -11 0 -5 -4 -7 -10 -4 -5 3 -10 1 -10 -4 0 -6 -7 -11
-15 -11 -8 0 -15 -7 -15 -15 0 -10 -10 -15 -32 -15 -21 0 -28 -3 -20 -8 9 -6
6 -12 -13 -20 -14 -6 -25 -16 -25 -22 0 -5 -7 -10 -15 -10 -8 0 -15 -7 -15
-15 0 -8 -7 -15 -15 -15 -8 0 -15 -7 -15 -15 0 -8 -7 -15 -15 -15 -8 0 -15 -7
-15 -15 0 -8 -7 -15 -15 -15 -8 0 -15 -7 -15 -15 0 -10 -10 -15 -30 -15 -18 0
-33 -6 -36 -15 -4 -8 -17 -15 -30 -15 -15 0 -24 -6 -24 -15 0 -8 -9 -15 -20
-15 -11 0 -20 -7 -20 -16 0 -8 -4 -13 -8 -10 -5 3 -16 -4 -25 -15 -9 -10 -24
-19 -32 -19 -8 0 -15 -7 -15 -15 0 -8 -7 -15 -15 -15 -8 0 -15 -7 -15 -15 0
-8 -7 -15 -15 -15 -8 0 -15 -7 -15 -15 0 -8 -7 -15 -15 -15 -8 0 -15 -7 -15
-15 0 -8 -7 -15 -15 -15 -8 0 -15 -7 -15 -15 0 -9 -9 -15 -25 -15 -14 0 -28
-7 -31 -15 -4 -8 -12 -15 -20 -15 -8 0 -14 -7 -14 -16 0 -10 -5 -14 -15 -10
-9 3 -24 -3 -35 -14 -11 -11 -24 -20 -30 -20 -5 0 -10 -7 -10 -15 0 -10 -10
-15 -30 -15 -20 0 -30 -5 -30 -15 0 -10 -10 -15 -30 -15 -20 0 -30 -5 -30 -15
0 -10 -10 -15 -30 -15 -20 0 -30 -5 -30 -15 0 -8 -9 -15 -19 -15 -11 0 -26 -7
-35 -15 -8 -8 -26 -15 -40 -15 -16 0 -25 -5 -23 -12 1 -8 -10 -14 -26 -16 -16
-2 -31 -10 -34 -18 -3 -8 -16 -14 -29 -14 -14 0 -27 -7 -30 -15 -4 -9 -19 -15
-35 -15 -19 0 -29 -5 -29 -15 0 -10 -10 -15 -30 -15 -20 0 -30 -5 -30 -15 0
-10 -10 -15 -30 -15 -20 0 -30 -5 -30 -15 0 -10 -10 -15 -30 -15 -20 0 -30 -5
-30 -15 0 -9 -6 -15 -12 -14 -21 4 -78 -12 -78 -22 0 -5 -13 -9 -30 -9 -20 0
-30 -5 -30 -15 0 -10 -11 -15 -35 -15 -21 0 -34 -5 -32 -12 1 -6 -15 -13 -38
-15 -21 -3 -48 -11 -59 -19 -11 -8 -35 -14 -53 -14 -25 0 -31 -3 -26 -16 4
-10 1 -15 -8 -14 -42 6 -79 -1 -79 -15 0 -9 -9 -15 -24 -15 -13 0 -26 -7 -30
-15 -4 -10 -19 -15 -49 -15 -24 0 -47 -4 -53 -9 -5 -5 -26 -12 -46 -15 -31 -6
-38 -4 -38 9 0 8 -7 15 -15 15 -11 0 -15 11 -15 40 0 27 -5 43 -15 46 -9 4
-15 19 -15 36 0 16 -7 36 -15 44 -8 9 -15 26 -15 40 0 14 -7 27 -15 30 -8 4
-15 13 -15 21 0 8 -7 21 -15 29 -8 9 -15 26 -15 40 0 14 -7 27 -15 30 -8 4
-15 12 -15 20 0 8 -7 14 -15 14 -8 0 -15 6 -15 14 0 8 -7 16 -15 20 -8 3 -15
15 -15 26 0 11 -7 23 -15 26 -8 4 -15 12 -15 20 0 8 -7 14 -15 14 -8 0 -15 9
-15 19 0 11 -7 26 -15 35 -8 8 -15 19 -15 25 0 6 -7 11 -15 11 -8 0 -15 9 -15
20 0 11 -6 19 -12 17 -8 -1 -14 10 -16 26 -2 15 -8 25 -13 21 -6 -3 -13 3 -16
15 -3 12 -12 21 -19 21 -8 0 -14 10 -14 25 0 14 -7 28 -15 31 -8 4 -15 12 -15
20 0 8 7 14 15 14 13 0 20 18 16 43 0 4 6 7 14 7 8 0 15 9 15 20 0 11 6 20 14
20 8 0 17 11 20 25 4 14 11 25 16 25 6 0 10 9 10 20 0 11 7 20 15 20 8 0 15 7
15 15 0 8 7 15 15 15 8 0 15 7 15 15 0 8 7 15 15 15 8 0 15 7 15 15 0 8 7 15
15 15 8 0 15 7 15 15 0 8 7 15 15 15 8 0 15 7 15 15 0 8 7 15 15 15 8 0 15 7
15 15 0 7 6 18 14 22 8 4 16 17 18 28 2 11 10 19 16 18 7 -2 12 6 12 17 0 11
7 20 15 20 10 0 15 10 15 29 0 16 6 31 15 35 12 4 15 29 15 131 0 102 -3 127
-15 131 -8 4 -15 17 -15 31 0 18 -8 28 -30 36 -16 6 -30 15 -30 19 0 4 -9 8
-20 8 -11 0 -20 6 -20 13 0 8 -4 7 -10 -3 -8 -13 -10 -12 -10 3 0 9 6 17 13
17 9 0 9 2 -1 9 -8 4 -13 11 -13 15 3 20 -1 25 -16 19 -10 -3 -15 -3 -11 1 3
4 -2 16 -13 27 -10 10 -19 26 -19 34 0 8 -7 15 -15 15 -8 0 -15 7 -15 15 0 8
-7 15 -15 15 -8 0 -15 7 -15 15 0 8 -7 15 -15 15 -8 0 -15 7 -15 15 0 8 -7 15
-15 15 -8 0 -15 7 -15 15 0 8 -7 15 -15 15 -8 0 -15 9 -15 20 0 13 -5 18 -15
14 -9 -4 -15 0 -15 10 0 9 -6 16 -14 16 -7 0 -16 9 -19 21 -3 12 -10 18 -16
14 -6 -3 -11 1 -11 9 0 9 -7 16 -15 16 -8 0 -15 7 -15 15 0 8 -7 15 -15 15 -8
0 -15 7 -15 15 0 8 -7 15 -15 15 -8 0 -15 7 -15 15 0 8 -7 15 -15 15 -8 0 -15
7 -15 15 0 8 -7 15 -15 15 -8 0 -15 7 -15 15 0 8 -7 15 -15 15 -8 0 -15 7 -15
15 0 8 -7 15 -15 15 -8 0 -15 7 -15 15 0 8 -7 15 -15 15 -8 0 -15 7 -15 15 0
8 -7 15 -15 15 -8 0 -15 7 -15 15 0 8 -7 15 -15 15 -8 0 -15 7 -15 15 0 8 -7
15 -15 15 -8 0 -15 7 -15 15 0 8 -7 15 -15 15 -8 0 -15 7 -15 15 0 8 -7 15
-15 15 -8 0 -15 7 -15 15 0 8 -7 15 -15 15 -8 0 -15 7 -15 15 0 8 -7 15 -15
15 -8 0 -15 7 -15 15 0 8 -7 15 -15 15 -8 0 -15 7 -15 15 0 8 -7 15 -15 15 -9
0 -18 7 -21 15 -4 8 -17 15 -30 15 -13 0 -24 4 -24 10 0 5 -7 7 -15 4 -8 -4
-15 -1 -15 5 0 6 -6 11 -14 11 -40 0 -62 73 -31 104 8 8 16 27 17 42 2 14 8
29 15 31 10 4 13 44 13 158 0 123 3 157 15 169 11 11 15 40 15 123 0 66 4 113
11 120 6 6 14 35 18 64 4 34 11 53 19 51 7 -1 12 7 12 18 0 11 6 20 14 20 8 0
16 7 20 15 3 8 17 15 32 15 14 0 40 6 57 14 18 8 74 16 126 19 51 3 96 9 100
15 3 6 62 12 140 14 96 2 136 7 139 16 2 7 23 12 55 12 62 0 99 9 91 21 -3 5
37 9 89 9 75 0 96 3 101 15 3 8 9 15 13 14 4 -1 29 -1 56 0 35 1 47 5 47 16 0
11 12 15 45 15 31 0 47 5 51 15 5 11 21 15 60 15 41 0 54 4 54 15 0 10 10 15
30 15 20 0 30 5 30 15 0 11 12 15 49 15 31 0 53 5 61 15 7 8 25 15 41 15 19 0
29 5 29 15 0 10 10 15 30 15 21 0 30 5 30 16 0 9 6 14 13 11 16 -6 60 11 53
21 -2 4 5 9 17 9 12 1 27 9 33 18 6 8 19 15 29 15 12 0 15 5 11 16 -4 12 -2
15 9 10 10 -4 15 1 15 14 0 11 7 20 15 20 8 0 15 7 15 15 0 8 7 15 15 15 14 0
19 14 18 48 -1 6 5 12 13 12 10 0 14 12 14 39 0 25 5 41 15 45 12 4 15 27 15
116 0 89 -3 112 -15 116 -10 4 -15 20 -15 49 0 29 -5 45 -15 49 -9 3 -15 18
-15 36 0 20 -5 30 -15 30 -10 0 -15 10 -15 34 0 21 -6 36 -15 40 -8 3 -15 15
-15 26 0 11 7 20 15 20 10 0 15 10 15 30 0 20 5 30 15 30 8 0 15 7 15 15 0 8
7 15 15 15 8 0 15 7 15 15 0 8 7 15 15 15 8 0 15 7 15 15 0 9 9 15 24 15 13 0
26 7 30 15 3 8 12 15 21 15 9 0 15 9 15 23 0 35 11 67 21 61 5 -3 9 18 9 45 0
36 -4 51 -13 51 -9 0 -14 14 -15 37 -1 21 -8 43 -17 49 -8 6 -15 16 -15 23 0
6 -5 11 -12 11 -16 0 -48 31 -48 47 0 7 9 13 20 13 11 0 20 7 20 15 0 9 9 15
25 15 16 0 25 6 25 15 0 8 7 15 15 15 8 0 15 7 15 15 0 8 6 15 14 15 8 0 17
12 21 27 5 21 8 24 16 12 6 -10 9 0 9 32 0 25 7 54 15 65 18 24 19 51 3 56
-10 4 -14 59 -16 221 -3 193 -2 217 12 217 9 0 16 7 16 15 0 10 10 15 30 15
20 0 30 5 30 15 0 11 12 15 50 15 29 0 50 5 50 11 0 5 5 7 10 4 6 -3 10 -1 10
4 0 6 14 11 30 11 20 0 30 5 30 15 0 8 7 15 15 15 8 0 15 6 15 14 0 8 10 16
23 18 12 2 21 9 19 16 -1 6 4 11 10 10 7 -2 12 3 10 10 -1 6 5 12 13 12 8 0
15 9 15 20 0 11 7 20 15 20 14 0 20 17 16 48 -1 6 5 12 14 12 11 0 15 12 15
50 0 28 5 50 10 50 12 0 14 47 2 54 -4 2 -9 24 -10 47 -2 23 -9 48 -17 56 -8
8 -15 28 -15 44 0 19 -5 29 -15 29 -8 0 -15 9 -15 20 0 11 -4 20 -10 20 -5 0
-12 11 -16 25 -3 14 -12 25 -20 25 -8 0 -14 7 -14 15 0 8 -7 15 -15 15 -8 0
-15 7 -15 15 0 8 -7 15 -15 15 -8 0 -15 9 -15 20 0 11 -4 20 -10 20 -5 0 -12
11 -16 25 -3 14 -12 25 -20 25 -8 0 -14 6 -14 14 0 8 -7 16 -15 20 -8 3 -15
17 -15 31 0 15 -4 24 -10 20 -6 -3 -15 6 -20 20 -6 15 -15 23 -21 20 -6 -4
-10 -1 -8 6 4 31 -2 49 -16 49 -9 0 -15 9 -15 25 0 14 -7 28 -15 31 -8 4 -15
15 -15 25 0 10 -6 18 -12 17 -8 -2 -14 9 -16 25 -2 15 -9 27 -18 27 -8 0 -14
10 -14 24 0 13 -7 26 -15 30 -8 3 -15 14 -15 25 0 14 -5 19 -15 15 -11 -5 -15
1 -15 25 0 21 -5 31 -15 31 -8 0 -15 9 -15 20 0 11 -6 19 -12 18 -8 -2 -14 9
-16 25 -2 15 -7 27 -12 27 -5 0 -11 14 -15 30 -4 17 -11 30 -16 30 -5 0 -12
18 -15 41 -4 22 -13 43 -20 46 -8 3 -14 20 -14 39 0 22 -4 33 -12 32 -9 -2
-14 12 -16 40 -2 29 -8 42 -18 42 -11 0 -14 13 -13 60 1 43 6 60 15 60 8 0 14
5 14 10 0 6 5 16 10 23 49 58 50 60 50 131 1 47 6 78 15 90 22 29 21 311 0
352 -8 16 -15 43 -15 61 0 17 -7 38 -15 47 -8 8 -15 26 -15 40 0 16 -6 26 -15
26 -11 0 -15 11 -15 36 0 21 -4 33 -10 29 -5 -3 -10 0 -10 7 0 7 -9 30 -20 51
-11 20 -20 48 -20 62 0 16 -6 25 -15 25 -10 0 -15 10 -15 29 0 16 -6 31 -15
35 -10 4 -15 20 -15 53 0 58 -9 95 -21 87 -5 -3 -9 22 -9 56 0 45 -4 62 -15
66 -11 5 -15 22 -15 64 0 42 -4 59 -15 64 -11 4 -15 21 -15 60 0 33 -5 56 -12
58 -8 3 -13 44 -16 121 -4 103 -3 117 12 117 9 0 16 7 16 15 0 8 7 15 15 15
12 0 15 13 15 55 0 40 4 57 15 61 10 4 15 20 15 49 0 29 5 45 15 49 10 3 15
19 15 46 0 29 4 40 15 40 10 0 15 10 15 30 0 21 5 30 16 30 11 0 14 8 12 33
-2 19 -8 31 -15 30 -7 -2 -13 3 -13 11 0 8 -8 17 -17 21 -17 6 -17 7 -1 19 14
10 17 36 19 177 1 90 6 170 12 177 6 8 6 12 -1 12 -5 0 -12 9 -15 21 -3 12
-10 18 -16 14 -7 -4 -11 3 -11 18 0 46 -12 90 -21 75 -7 -10 -9 -9 -9 5 0 9 6
17 13 17 8 0 14 7 14 15 0 8 -6 15 -14 15 -16 0 -17 32 -3 80 7 23 7 36 0 38
-5 2 -10 26 -10 53 0 28 -4 48 -9 45 -5 -4 -12 8 -16 25 -4 17 -13 33 -21 36
-8 3 -14 11 -14 19 0 8 -5 14 -11 14 -5 0 -7 5 -4 10 3 6 1 10 -4 10 -6 0 -11
9 -11 20 0 11 -7 20 -15 20 -8 0 -14 3 -14 8 3 19 -2 33 -11 27 -5 -3 -15 6
-22 20 -8 18 -14 22 -20 13 -5 -9 -8 -3 -8 15 0 23 -4 27 -30 27 -16 0 -33 -1
-36 -2 -3 -2 -13 14 -23 35 -9 20 -20 34 -24 30 -4 -3 -7 1 -7 10 0 10 -7 17
-16 17 -8 0 -22 7 -30 15 -10 10 -35 15 -75 15 -46 0 -59 3 -59 15 0 10 -10
15 -30 15 -19 0 -30 5 -30 14 0 8 -11 17 -25 20 -14 4 -25 10 -25 15 0 4 -11
20 -25 35 -14 15 -25 22 -25 17 0 -6 -5 -11 -11 -11 -6 0 -9 7 -5 15 4 10 -1
15 -14 15 -11 0 -20 7 -20 15 0 10 -10 15 -31 15 -23 0 -30 4 -25 15 3 8 2 14
-2 14 -20 -3 -32 3 -32 16 0 10 -10 15 -30 15 -20 0 -30 5 -30 15 0 11 -11 15
-43 15 -24 0 -52 7 -63 15 -10 8 -31 15 -46 15 -16 0 -28 5 -28 11 0 5 -4 7
-10 4 -5 -3 -10 -1 -10 4 0 6 -16 11 -35 11 -24 0 -35 5 -35 15 0 13 -26 21
-54 16 -5 -1 -6 5 -3 13 4 10 -4 16 -29 20 -19 4 -34 11 -34 16 0 6 -7 10 -15
10 -8 0 -15 5 -15 11 0 5 -4 7 -10 4 -5 -3 -10 -1 -10 4 0 6 -16 11 -35 11
-24 0 -35 5 -35 15 0 11 -12 15 -45 15 -29 0 -45 4 -46 13 0 9 -2 9 -6 -1 -4
-10 -8 -9 -17 4 -7 9 -24 17 -39 17 -14 0 -28 6 -31 13 -7 18 -41 18 -60 -1
-9 -9 -34 -15 -65 -15 -39 0 -51 4 -51 15 0 8 -7 15 -15 15 -8 0 -15 7 -15 15
0 10 -10 15 -34 15 -21 0 -36 6 -40 15 -3 8 -14 15 -25 15 -10 0 -21 7 -25 15
-3 8 -17 15 -31 15 -16 0 -25 6 -25 15 0 8 -7 16 -15 16 -32 3 -36 4 -43 15
-4 6 -17 14 -29 18 -13 4 -23 12 -23 17 0 5 -9 9 -20 9 -11 0 -20 7 -20 15 0
11 -12 15 -42 16 -68 2 -101 7 -107 17 -7 12 -49 15 -158 13 -67 -1 -83 -4
-83 -16 0 -10 -10 -15 -30 -15 -20 0 -30 -5 -30 -15 0 -10 -10 -15 -29 -15
-16 0 -31 -6 -34 -14 -3 -8 -16 -16 -29 -18 -13 -2 -22 -9 -20 -16 1 -6 -7
-12 -18 -12 -11 0 -20 -7 -20 -15 0 -11 -11 -15 -40 -15 -27 0 -43 -5 -46 -15
-7 -18 -64 -20 -64 -2 -1 15 -68 47 -99 47 -12 0 -19 4 -16 10 3 6 -3 10 -14
10 -11 0 -23 5 -26 10 -4 6 -11 7 -17 4 -6 -4 -8 5 -6 22 2 21 -2 30 -14 32
-14 3 -18 -3 -18 -25 0 -16 6 -35 13 -42 10 -11 10 -14 0 -18 -7 -3 -13 -11
-13 -19 0 -8 -4 -14 -10 -14 -5 0 -10 7 -10 15 0 10 -11 15 -35 15 -24 0 -35
-5 -35 -15 0 -8 -7 -15 -15 -15 -12 0 -15 -13 -15 -60 0 -47 -3 -60 -15 -60
-8 0 -15 -4 -15 -10 0 -13 -33 -13 -45 -1 -6 6 -127 11 -277 12 -212 1 -270 5
-279 15 -16 20 -165 19 -203 -1 -18 -10 -57 -15 -112 -15 -52 0 -84 -4 -84
-11 0 -5 -4 -7 -10 -4 -5 3 -10 1 -10 -4 0 -6 -20 -11 -45 -11 -33 0 -45 -4
-45 -15 0 -11 -12 -15 -45 -15 -33 0 -45 -4 -45 -15 0 -8 -6 -15 -14 -15 -8 0
-17 -7 -20 -16 -8 -20 -116 -18 -116 3 0 18 -56 17 -64 -2 -3 -8 -9 -15 -13
-14 -4 1 -29 1 -55 0 -36 -1 -48 -5 -48 -16 0 -8 -6 -15 -14 -15 -8 0 -16 -7
-20 -15 -3 -8 -17 -15 -31 -15 -14 0 -25 -6 -25 -12 0 -7 -12 -14 -27 -15 -15
0 -32 -9 -39 -18 -7 -9 -15 -16 -18 -16 -37 4 -66 -1 -66 -12 0 -9 -14 -14
-42 -15 -23 -1 -45 -7 -48 -13 -4 -6 -26 -13 -49 -16 -25 -4 -41 -11 -41 -19
0 -8 -5 -14 -11 -14 -6 0 -17 -7 -25 -15 -9 -8 -27 -15 -40 -15 -14 0 -22 -4
-19 -10 3 -6 -1 -7 -9 -4 -9 3 -16 1 -16 -5 0 -6 -7 -11 -15 -11 -8 0 -15 -7
-15 -15 0 -8 -7 -15 -15 -15 -7 0 -19 -8 -24 -17 -6 -10 -11 -14 -11 -9 0 5
-7 3 -15 -4 -8 -7 -12 -17 -8 -23 3 -6 1 -7 -5 -3 -6 3 -15 -2 -21 -11 -6 -10
-11 -14 -11 -9 0 11 -50 -46 -50 -57 0 -5 -4 -6 -9 -3 -9 6 -26 -22 -23 -36 1
-5 -1 -7 -6 -7 -24 4 -42 -3 -42 -16 0 -8 -7 -15 -15 -15 -8 0 -15 -7 -15 -15
0 -8 -7 -15 -15 -15 -8 0 -15 -7 -15 -15 0 -8 -7 -15 -15 -15 -8 0 -15 -7 -15
-15 0 -8 -7 -15 -15 -15 -8 0 -15 -7 -15 -15 0 -8 -6 -12 -13 -9 -8 3 -22 -7
-33 -22 -10 -14 -25 -32 -31 -39 -7 -8 -13 -20 -13 -28 0 -8 -7 -17 -15 -21
-8 -3 -15 -15 -15 -26 0 -15 -7 -20 -29 -20 -24 0 -30 -5 -33 -25 -2 -14 -5
-25 -8 -24 -16 7 -50 -25 -50 -46 0 -18 -5 -25 -19 -25 -11 0 -26 -7 -35 -15
-8 -8 -26 -15 -40 -15 -16 0 -26 -6 -26 -15 0 -10 -10 -15 -30 -15 -20 0 -30
-5 -30 -15 0 -8 -9 -15 -21 -15 -11 0 -17 -4 -14 -10 3 -5 -1 -10 -9 -10 -12
0 -16 -11 -16 -45 0 -46 -22 -85 -47 -85 -7 0 -13 -7 -13 -15 0 -8 -7 -15 -15
-15 -11 0 -15 -12 -15 -45 0 -33 -4 -45 -15 -45 -10 0 -15 -10 -15 -30 0 -20
-5 -30 -15 -30 -8 0 -15 -7 -15 -15 0 -8 -7 -15 -15 -15 -8 0 -15 -7 -15 -15
0 -8 -7 -15 -15 -15 -8 0 -15 -7 -15 -15 0 -8 -6 -15 -12 -15 -9 0 -8 -4 2
-10 13 -8 12 -10 -2 -10 -11 0 -18 -8 -18 -20 0 -11 -7 -20 -15 -20 -8 0 -15
-7 -15 -15 0 -10 -10 -15 -27 -15 -14 0 -24 -3 -20 -6 9 -9 -39 -54 -58 -54
-8 0 -15 -7 -15 -15 0 -8 -7 -15 -15 -15 -8 0 -15 -7 -15 -15 0 -8 -6 -15 -14
-15 -8 0 -17 -12 -20 -26 -8 -29 -29 -54 -45 -54 -6 0 -11 -9 -11 -19 0 -11
-7 -27 -16 -35 -8 -9 -16 -29 -16 -46 -1 -18 -6 -30 -15 -30 -8 0 -13 -11 -13
-29 0 -16 -7 -36 -15 -45 -8 -8 -15 -22 -15 -30 0 -9 -7 -16 -15 -16 -8 0 -15
-9 -15 -20 0 -12 -7 -32 -16 -45 -9 -13 -13 -32 -10 -43 11 -34 -12 -123 -39
-148 -14 -13 -25 -28 -25 -34 0 -5 -7 -10 -15 -10 -8 0 -15 -7 -15 -15 0 -7
-6 -18 -14 -22 -10 -6 -16 -29 -17 -72 -2 -41 -7 -65 -16 -68 -7 -3 -13 -13
-13 -23 0 -10 -7 -31 -15 -46 -31 -61 -11 -154 33 -154 13 0 13 -2 -2 -13 -13
-10 -17 -24 -14 -57 2 -25 5 -43 8 -40 3 2 15 -5 28 -15 21 -19 22 -25 22
-197 0 -152 2 -178 15 -178 12 0 15 -17 15 -95 0 -72 3 -95 13 -95 9 0 14 -17
16 -51 1 -29 9 -58 17 -66 8 -9 14 -34 14 -62 0 -26 7 -56 15 -67 11 -14 14
-50 15 -147 0 -104 3 -129 15 -133 12 -5 15 -25 15 -94 0 -60 4 -90 12 -92 7
-3 14 -32 16 -76 3 -53 8 -72 18 -72 9 0 14 -11 14 -31 0 -17 7 -37 15 -45 8
-9 15 -29 15 -45 0 -19 5 -29 15 -29 10 0 15 -11 15 -35 0 -19 5 -35 11 -35 5
0 7 -4 4 -10 -3 -5 -1 -10 4 -10 6 0 11 -12 11 -26 0 -14 4 -23 9 -19 5 3 13
-5 17 -17 3 -12 13 -28 20 -36 8 -7 14 -25 14 -38 0 -17 4 -23 12 -18 8 5 9 2
5 -9 -3 -10 -2 -17 3 -17 6 0 10 -7 10 -15 0 -8 7 -15 15 -15 10 0 15 -10 15
-30 0 -20 5 -30 15 -30 10 0 15 -10 15 -30 0 -20 5 -30 15 -30 8 0 15 -7 15
-15 0 -8 7 -15 15 -15 8 0 15 -9 15 -21 0 -13 4 -18 12 -13 8 5 9 2 5 -9 -3
-10 -2 -17 3 -17 6 0 10 -12 10 -26 0 -14 4 -23 10 -19 6 4 13 -7 16 -24 4
-17 13 -31 20 -31 8 0 13 -3 13 -7 -5 -28 3 -53 16 -53 8 0 14 -3 14 -7 -4
-25 3 -43 16 -43 8 0 15 -9 15 -21 0 -11 4 -18 9 -15 5 3 14 -14 20 -39 6 -25
16 -45 21 -45 6 0 10 -7 10 -15 0 -8 7 -15 15 -15 8 0 15 -6 15 -14 0 -8 7
-17 16 -20 8 -3 12 -10 9 -16 -3 -6 1 -13 9 -16 9 -3 13 -10 10 -15 -3 -5 0
-9 5 -9 6 0 11 -7 11 -15 0 -8 7 -15 15 -15 10 0 15 -10 15 -32 0 -21 3 -28 8
-20 6 9 12 6 20 -13 6 -14 16 -25 22 -25 5 0 10 -7 10 -15 0 -8 7 -15 16 -15
10 0 14 -5 10 -15 -3 -9 3 -24 14 -35 11 -11 20 -24 20 -30 0 -5 7 -10 15 -10
8 0 15 -7 15 -15 0 -8 7 -15 15 -15 10 0 15 -10 15 -30 0 -20 5 -30 15 -30 8
0 15 -9 15 -21 0 -11 4 -18 9 -15 5 4 12 -7 16 -24 4 -16 13 -30 21 -30 8 0
14 -7 14 -15 0 -8 7 -15 15 -15 10 0 15 -10 15 -30 0 -20 5 -30 15 -30 10 0
15 -10 15 -30 0 -20 5 -30 15 -30 10 0 15 -10 15 -30 0 -20 5 -30 15 -30 10 0
15 -10 15 -30 0 -16 4 -30 9 -30 5 0 12 -14 16 -30 4 -17 13 -30 21 -30 10 0
14 -13 14 -45 0 -33 4 -45 15 -45 12 0 15 -13 15 -55 0 -40 4 -57 15 -61 10
-4 15 -20 15 -49 0 -29 5 -45 15 -49 12 -4 15 -26 15 -106 0 -82 3 -100 15
-100 12 0 15 -18 15 -104 0 -75 4 -106 13 -108 8 -3 13 -39 15 -122 3 -89 7
-119 18 -123 21 -8 21 -263 0 -263 -8 0 -17 -14 -21 -30 -7 -32 -19 -39 -29
-15 -3 10 -19 15 -46 15 -29 0 -40 -4 -40 -15 0 -8 -7 -15 -15 -15 -13 0 -15
-21 -15 -129 0 -105 -3 -130 -15 -135 -11 -4 -15 -21 -15 -58 0 -63 -9 -100
-21 -92 -5 3 -9 -18 -9 -45 0 -29 -5 -51 -11 -51 -5 0 -7 -4 -4 -10 3 -5 1
-10 -4 -10 -7 0 -11 -42 -11 -121 0 -94 -3 -124 -15 -135 -8 -9 -15 -31 -15
-50 0 -24 -5 -34 -15 -34 -10 0 -15 -10 -15 -30 0 -17 -5 -30 -12 -30 -7 0
-22 -19 -33 -41 -10 -23 -25 -44 -32 -46 -7 -3 -13 -11 -13 -19 0 -8 -6 -14
-14 -14 -17 0 -23 -23 -18 -62 3 -17 11 -28 19 -28 13 0 15 -11 11 -57 -3 -31
-10 -59 -16 -61 -7 -2 -12 -8 -12 -13 0 -21 -69 -91 -81 -83 -5 3 -9 -3 -10
-13 0 -10 -3 -13 -5 -7 -4 9 -12 9 -32 -1 -15 -7 -42 -19 -59 -26 -18 -8 -33
-18 -33 -23 0 -5 -11 -19 -25 -32 -14 -13 -25 -28 -25 -34 0 -5 -7 -10 -15
-10 -8 0 -15 -7 -15 -15 0 -8 -5 -15 -11 -15 -5 0 -7 -4 -4 -10 3 -5 1 -10 -4
-10 -6 0 -11 -9 -11 -20 0 -11 -7 -20 -15 -20 -8 0 -15 -7 -15 -15 0 -8 -7
-15 -15 -15 -8 0 -15 -7 -15 -15 0 -8 -7 -15 -15 -15 -8 0 -15 -7 -15 -15 0
-8 -7 -15 -15 -15 -8 0 -15 -7 -15 -16 0 -8 -4 -13 -9 -9 -5 3 -26 -11 -47
-30 -20 -19 -43 -35 -50 -35 -8 0 -14 -7 -14 -15 0 -8 -7 -15 -15 -15 -8 0
-15 -7 -15 -15 0 -8 -6 -15 -14 -15 -8 0 -17 -7 -20 -16 -3 -8 -10 -13 -15
-10 -5 3 -11 -3 -14 -14 -3 -11 -12 -20 -21 -20 -9 0 -16 -5 -16 -11 0 -5 -4
-7 -10 -4 -5 3 -10 1 -10 -4 0 -6 -7 -11 -15 -11 -8 0 -15 -7 -15 -15 0 -8 -7
-15 -15 -15 -8 0 -15 -7 -15 -15 0 -8 -9 -15 -20 -15 -11 0 -20 -7 -20 -16 0
-8 -4 -12 -10 -9 -5 3 -10 1 -10 -5 0 -6 -4 -9 -9 -6 -5 3 -11 -1 -15 -9 -3
-8 -12 -15 -21 -15 -8 0 -15 -7 -15 -15 0 -8 -5 -15 -10 -15 -6 0 -20 -9 -32
-20 -12 -11 -34 -26 -50 -32 -15 -7 -28 -19 -28 -25 0 -7 -7 -13 -15 -13 -8 0
-15 -5 -15 -11 0 -5 -13 -15 -30 -20 -16 -6 -30 -15 -30 -20 0 -5 -7 -9 -15
-9 -8 0 -15 -7 -15 -15 0 -8 -5 -15 -10 -15 -6 0 -23 -12 -38 -28 -15 -15 -36
-28 -46 -30 -10 -2 -28 -13 -40 -25 -11 -12 -39 -36 -61 -52 -22 -16 -50 -40
-61 -52 -12 -13 -26 -23 -33 -23 -6 0 -11 -7 -11 -15 0 -8 -7 -15 -15 -15 -8
0 -15 -7 -15 -15 0 -8 -8 -15 -18 -15 -10 0 -37 -20 -60 -45 -23 -25 -49 -45
-57 -45 -8 0 -15 -5 -15 -11 0 -15 -95 -109 -109 -109 -6 0 -11 -7 -11 -15 0
-8 -7 -15 -15 -15 -8 0 -15 -7 -15 -15 0 -8 -7 -15 -15 -15 -8 0 -15 -7 -15
-16 0 -8 -4 -13 -9 -10 -5 3 -20 -3 -34 -14 -14 -11 -30 -20 -35 -20 -5 0 -12
-6 -15 -13 -2 -7 -23 -22 -46 -32 -22 -11 -41 -26 -41 -34 0 -7 -6 -11 -14 -8
-9 4 -16 -3 -20 -16 -3 -12 -8 -18 -12 -14 -4 4 -16 0 -26 -10 -11 -9 -18 -11
-18 -5 0 7 4 12 10 12 5 0 7 6 4 14 -4 11 0 13 17 9 14 -4 20 -2 15 5 -3 6 4
18 16 26 12 9 17 16 10 16 -6 0 4 16 22 35 35 35 40 75 10 75 -8 0 -14 7 -14
15 0 8 -7 15 -15 15 -8 0 -15 7 -15 15 0 8 -7 15 -15 15 -8 0 -15 7 -15 15 0
8 -7 15 -15 15 -8 0 -15 7 -15 15 0 8 -7 15 -15 15 -8 0 -15 7 -15 15 0 8 -7
15 -15 15 -8 0 -15 5 -15 11 0 5 -4 8 -9 5 -5 -3 -11 1 -15 9 -3 9 -12 12 -22
8 -12 -4 -15 -3 -10 6 5 8 1 14 -13 18 -12 3 -21 12 -21 19 0 8 -6 14 -14 14
-8 0 -16 7 -20 15 -3 8 -17 15 -31 15 -16 0 -25 6 -25 15 0 8 -4 15 -10 15 -5
0 -19 9 -30 20 -12 12 -25 18 -30 15 -6 -4 -10 1 -10 9 0 9 -9 16 -20 16 -11
0 -20 7 -20 15 0 8 -7 15 -15 15 -8 0 -15 7 -15 15 0 8 -7 15 -15 15 -8 0 -15
7 -15 15 0 8 -7 15 -15 15 -9 0 -15 9 -15 25 0 14 -7 28 -15 31 -8 4 -15 12
-15 20 0 8 -7 14 -15 14 -8 0 -15 7 -15 15 0 8 -7 15 -15 15 -8 0 -15 6 -15
14 0 8 -7 16 -15 20 -8 3 -15 17 -15 31 0 15 -4 24 -9 20 -6 -3 -14 3 -20 12
-6 10 -11 15 -11 11 0 -4 -14 6 -30 22 -17 17 -35 30 -40 30 -6 0 -10 11 -10
25 0 16 -6 25 -15 25 -8 0 -15 7 -15 15 0 8 -6 15 -14 15 -7 0 -16 14 -19 30
-4 18 -13 30 -22 30 -8 0 -15 7 -15 15 0 8 -4 15 -10 15 -5 0 -10 7 -10 15 0
8 -7 15 -15 15 -10 0 -15 10 -15 30 0 20 -5 30 -15 30 -10 0 -15 10 -15 30 0
20 -5 30 -15 30 -10 0 -15 10 -15 30 0 20 -5 30 -15 30 -9 0 -15 9 -15 24 0
13 -7 26 -15 30 -8 3 -15 12 -15 21 0 8 -7 15 -15 15 -10 0 -15 10 -15 30 0
20 -5 30 -15 30 -8 0 -15 7 -15 15 0 8 -7 15 -15 15 -10 0 -15 10 -15 30 0 20
-5 30 -15 30 -8 0 -15 7 -15 15 0 8 -4 15 -9 15 -5 0 -12 13 -16 30 -4 16 -13
30 -21 30 -8 0 -14 6 -14 14 0 8 -7 16 -15 20 -8 3 -15 9 -14 13 4 23 -2 43
-13 43 -7 0 -22 20 -33 45 -11 25 -25 45 -32 45 -8 0 -13 12 -13 30 0 20 -5
30 -15 30 -8 0 -15 9 -15 20 0 11 -4 20 -10 20 -5 0 -12 11 -16 25 -3 14 -12
25 -20 25 -8 0 -14 10 -14 25 0 14 -7 28 -15 31 -8 4 -15 12 -15 20 0 8 -7 14
-15 14 -10 0 -15 10 -15 30 0 20 -5 30 -15 30 -8 0 -15 7 -15 15 0 8 -7 15
-15 15 -10 0 -15 10 -15 30 0 20 -5 30 -15 30 -8 0 -15 9 -15 19 0 11 -6 26
-13 33 -8 7 -17 26 -21 41 -3 15 -11 27 -16 27 -6 0 -10 9 -10 21 0 13 -5 19
-12 16 -9 -3 -14 6 -15 26 -1 16 -9 37 -18 47 -8 9 -15 29 -15 43 0 17 -5 27
-15 27 -10 0 -15 10 -15 30 0 20 -5 30 -15 30 -10 0 -15 10 -15 30 0 20 -5 30
-15 30 -9 0 -15 9 -15 23 0 35 -11 67 -21 61 -5 -3 -9 11 -9 30 0 26 -4 36
-16 36 -10 0 -14 6 -11 14 3 8 -3 30 -14 50 -10 20 -19 47 -19 61 0 14 -6 25
-13 25 -9 0 -14 14 -15 42 -1 23 -7 45 -12 48 -6 4 -13 24 -17 46 -3 21 -12
45 -21 51 -13 11 -13 13 -1 13 10 0 11 2 2 8 -6 4 -13 30 -15 57 -2 28 -8 49
-13 48 -6 -1 -12 8 -12 20 -1 12 -9 27 -18 33 -10 8 -15 28 -15 63 0 39 -4 51
-15 51 -12 0 -15 18 -15 105 0 87 -3 105 -15 105 -11 0 -15 11 -15 43 0 24 -7
52 -15 63 -9 11 -14 42 -15 77 0 44 -3 57 -15 57 -12 0 -15 14 -15 64 0 44 -5
69 -15 80 -9 8 -15 33 -15 60 0 26 -6 51 -15 60 -8 8 -15 32 -15 55 0 27 -4
41 -13 41 -8 0 -14 15 -15 38 -3 57 -13 93 -23 86 -5 -3 -9 21 -9 55 0 46 -4
61 -14 61 -12 0 -14 30 -16 167 0 127 -4 171 -15 183 -10 11 -14 56 -15 187 0
120 -5 182 -14 205 -9 22 -15 92 -18 212 -2 130 -7 181 -16 184 -16 5 -17 453
-1 484 7 12 14 82 17 155 3 95 9 136 18 144 10 8 14 41 14 121 0 87 3 110 15
114 12 5 15 26 15 101 0 71 4 98 15 109 10 10 15 36 15 77 0 71 8 109 21 101
5 -3 9 24 9 61 0 49 4 67 15 71 11 5 15 23 15 73 0 44 5 74 15 87 8 10 15 38
15 62 0 23 4 42 9 42 11 0 22 44 23 89 1 19 6 31 15 31 9 0 13 14 13 45 0 33
4 45 15 45 11 0 15 12 15 44 0 26 6 51 15 60 8 8 15 26 15 41 0 15 7 33 15 41
8 9 15 31 15 50 0 24 5 34 15 34 11 0 15 12 15 45 0 33 4 45 15 45 10 0 15 10
15 31 0 17 7 37 15 45 8 9 15 28 15 43 0 15 7 36 15 47 8 10 15 29 15 42 0 13
7 30 15 38 8 9 15 26 15 39 0 13 7 30 15 39 8 8 15 24 15 36 0 11 7 23 15 26
9 4 15 19 15 35 0 19 5 29 15 29 10 0 15 10 15 34 0 19 7 41 15 50 8 8 15 32
15 53 0 25 3 33 9 25 6 -10 10 -8 14 10 4 12 7 33 7 46 0 13 6 22 15 22 10 0
15 10 15 30 0 20 5 30 15 30 10 0 15 11 15 35 0 21 5 34 12 33 6 -2 15 12 19
31 4 18 11 36 17 40 5 3 13 21 17 39 3 17 11 32 16 32 5 0 9 14 9 30 0 18 5
29 12 28 7 -2 14 8 16 22 2 14 9 30 16 35 7 6 17 21 21 35 4 14 12 28 17 31 5
3 10 15 11 27 0 11 5 18 9 16 4 -3 10 7 14 21 3 14 12 25 20 25 9 0 14 11 14
29 0 16 6 31 15 35 8 3 15 17 15 31 0 16 6 25 15 25 9 0 15 9 15 25 0 14 7 28
15 31 8 4 15 12 15 20 0 8 7 14 15 14 9 0 15 9 15 25 0 14 7 28 15 31 8 4 15
10 15 16 0 5 7 16 15 24 8 9 15 24 15 35 0 11 5 17 10 14 6 -4 15 7 21 24 6
17 15 31 20 31 5 0 9 9 9 20 0 11 6 20 14 20 8 0 17 11 20 25 4 14 11 23 16
20 6 -3 10 3 10 15 0 11 7 23 15 26 8 4 15 10 15 15 0 5 9 18 20 29 11 11 20
27 20 35 0 8 5 15 10 15 6 0 10 7 10 15 0 8 7 15 15 15 8 0 15 7 15 15 0 8 7
15 15 15 8 0 15 5 15 10 0 6 9 20 20 32 11 12 20 28 20 35 0 7 5 13 10 13 6 0
10 7 10 15 0 8 7 15 15 15 8 0 15 5 15 10 0 6 9 19 20 30 12 12 18 25 15 29
-2 5 2 11 10 15 8 3 15 12 15 21 0 8 7 15 15 15 8 0 15 7 15 15 0 8 7 15 15
15 8 0 15 8 15 18 0 9 9 23 20 30 11 7 20 19 20 27 0 8 5 15 10 15 6 0 10 7
10 15 0 8 7 15 15 15 8 0 15 7 15 15 0 8 7 15 15 15 8 0 15 7 15 15 0 8 7 15
15 15 8 0 15 5 15 10 0 12 32 45 51 53 9 4 7 6 -6 7 -18 1 -18 2 3 11 13 5 20
13 17 19 -3 6 1 13 9 16 9 3 16 12 16 20 0 8 7 14 15 14 8 0 15 7 15 15 0 8 7
15 15 15 8 0 15 7 15 15 0 8 7 15 15 15 8 0 15 7 15 15 0 8 7 15 15 15 8 0 15
4 15 10 0 13 95 110 109 110 6 0 11 4 11 10 0 13 66 80 79 80 6 0 11 7 11 15
0 8 7 15 15 15 8 0 15 7 15 15 0 8 7 15 15 15 8 0 15 7 15 15 0 8 7 15 15 15
8 0 15 7 15 15 0 8 5 15 10 15 13 0 50 37 50 50 0 6 7 10 15 10 16 0 27 8 66
43 10 9 23 17 29 17 6 0 10 5 10 11 0 13 67 79 80 79 6 0 10 7 10 15 0 8 7 15
15 15 8 0 15 7 15 15 0 8 7 15 15 15 8 0 15 7 15 15 0 8 5 15 11 15 7 0 18 8
26 18 8 9 11 11 7 3 -5 -9 2 -8 19 5 15 10 27 22 27 27 0 4 7 7 15 7 8 0 15 7
15 15 0 8 7 15 15 15 8 0 15 7 15 15 0 8 7 15 15 15 8 0 15 6 15 13 0 7 10 14
22 14 13 1 28 9 34 18 6 8 16 15 23 15 6 0 11 7 11 15 0 8 5 15 11 15 6 0 17
7 25 15 9 8 24 15 35 15 10 0 19 7 19 15 0 8 7 15 15 15 8 0 15 7 15 15 0 8 9
15 20 15 11 0 20 7 20 15 0 8 3 14 8 14 24 -4 42 3 42 16 0 8 7 15 15 15 8 0
15 4 15 9 0 5 14 12 30 16 17 4 30 13 30 21 0 8 7 14 15 14 8 0 15 7 15 15 0
8 9 15 19 15 11 0 26 7 35 15 8 8 19 15 25 15 6 0 11 7 11 15 0 8 7 15 15 15
7 0 18 7 23 16 5 9 12 15 15 15 24 -3 37 1 34 11 -1 6 8 14 21 17 13 3 23 10
22 15 0 6 7 11 17 12 10 2 23 10 29 18 6 9 21 16 33 16 12 0 19 4 16 10 -3 5
6 12 20 16 14 3 25 13 25 21 0 7 6 13 13 12 30 -4 47 2 47 16 0 10 10 15 30
15 20 0 30 5 30 15 0 8 9 15 19 15 11 0 26 7 35 15 8 8 22 15 31 15 9 0 14 4
11 9 -4 5 8 12 25 16 17 4 32 12 35 19 2 6 13 12 24 13 11 1 27 9 36 17 8 9
24 16 34 16 10 0 20 7 24 15 3 8 16 15 29 15 13 0 32 7 43 15 10 8 31 15 47
15 17 0 27 5 27 15 0 10 10 15 30 15 20 0 30 5 30 15 0 10 10 15 30 15 20 0
30 5 30 15 0 10 10 15 30 15 20 0 30 5 30 15 0 10 10 15 30 15 20 0 30 5 30
15 0 8 6 12 13 10 7 -3 30 4 52 15 21 11 50 20 62 20 14 0 23 6 23 15 0 10 10
15 30 15 20 0 30 5 30 15 0 11 12 15 45 15 33 0 45 4 45 15 0 10 10 15 31 15
17 0 37 7 45 15 9 8 31 15 50 15 24 0 34 5 34 15 0 11 11 15 40 15 29 0 40 4
40 15 0 10 11 15 35 15 19 0 35 5 35 11 0 5 5 7 10 4 6 -3 10 -1 10 4 0 6 15
11 34 11 18 0 39 7 46 15 8 9 30 15 59 15 29 0 41 3 33 9 -19 11 8 21 58 21
21 0 43 6 50 15 8 9 30 15 57 15 30 0 45 5 49 15 4 10 21 15 53 15 25 0 55 7
65 15 12 9 42 15 73 15 40 0 53 4 53 15 0 11 13 15 53 15 30 1 60 7 71 15 12
9 42 15 72 15 34 0 56 5 64 15 9 11 33 15 86 15 51 0 77 4 88 15 11 11 37 15
99 15 62 0 86 4 90 13 4 11 37 14 134 16 140 2 184 8 161 22 -8 5 21 9 73 9
47 0 89 4 95 9 17 17 57 18 620 20 476 1 568 -1 604 -14z m114 -2190 c-4 -8
-10 -15 -15 -15 -5 0 -9 7 -9 15 0 8 7 15 15 15 9 0 12 -6 9 -15z m-3733
-1374 c-21 -21 -91 -30 -91 -12 0 11 25 21 55 21 14 0 30 6 37 14 7 8 14 10
16 6 2 -5 -6 -18 -17 -29z m-81 -128 c0 -9 19 -13 65 -13 51 0 65 -3 65 -15 0
-10 -10 -15 -30 -15 -18 0 -33 -6 -36 -15 -5 -12 -24 -15 -84 -15 -74 0 -111
13 -76 26 9 3 16 12 16 20 0 8 7 14 15 14 8 0 15 7 15 15 0 10 9 14 25 13 14
-1 25 -8 25 -15z m6000 -28 c0 -8 -4 -15 -10 -15 -5 0 -10 7 -10 15 0 8 5 15
10 15 6 0 10 -7 10 -15z"/>
</g>
</svg>
